<svg width="40" height="48" viewBox="0 0 40 48" fill="none" xmlns="http://www.w3.org/2000/svg">
<g clip-path="url(#clip0_716_1534)">
<path d="M37.9776 0.200012H2.0225C1.15373 0.200012 0.449463 0.826814 0.449463 1.60001V46.4C0.449463 47.1732 1.15373 47.8 2.0225 47.8H37.9776C38.8463 47.8 39.5506 47.1732 39.5506 46.4V1.60001C39.5506 0.826814 38.8463 0.200012 37.9776 0.200012Z" fill="white" stroke="#EAE9F2"/>
<path d="M13.9042 8.768H13.5176V6.384H11.4008L11.2974 7.808C11.257 8.336 11.1761 8.632 10.9514 8.768H10.7042V9.736H11.2165V9.2H13.3918V9.736H13.9042V8.768ZM11.8098 7.808L11.8817 6.812H12.9828V8.768H11.5401C11.7109 8.592 11.7693 8.34 11.8098 7.808ZM15.3335 7.112C14.6593 7.112 14.2054 7.548 14.2054 8.18C14.2054 8.812 14.6593 9.248 15.3335 9.248C16.0076 9.248 16.4616 8.812 16.4616 8.18C16.4616 7.548 16.0076 7.112 15.3335 7.112ZM15.3335 8.844C14.9559 8.844 14.7267 8.572 14.7267 8.18C14.7267 7.788 14.9559 7.516 15.3335 7.516C15.711 7.516 15.9402 7.788 15.9402 8.18C15.9402 8.572 15.711 8.844 15.3335 8.844ZM18.5246 7.56V7.16H16.9516V9.2H17.4639V7.56H18.5246ZM19.8893 7.112C19.2152 7.112 18.7612 7.548 18.7612 8.18C18.7612 8.812 19.2152 9.248 19.8893 9.248C20.5635 9.248 21.0174 8.812 21.0174 8.18C21.0174 7.548 20.5635 7.112 19.8893 7.112ZM19.8893 8.844C19.5118 8.844 19.2826 8.572 19.2826 8.18C19.2826 7.788 19.5118 7.516 19.8893 7.516C20.2669 7.516 20.4961 7.788 20.4961 8.18C20.4961 8.572 20.2669 8.844 19.8893 8.844ZM21.5074 9.2H22.5816C23.1029 9.2 23.3861 8.948 23.3861 8.62C23.3861 8.34 23.1883 8.176 22.9726 8.124C23.1389 8.068 23.2917 7.924 23.2917 7.688C23.2917 7.392 23.049 7.16 22.5367 7.16H21.5074V9.2ZM22.5187 8.328C22.7524 8.328 22.8737 8.42 22.8737 8.584C22.8737 8.748 22.7524 8.848 22.5187 8.848H22.0108V8.328H22.5187ZM22.4737 7.512C22.6805 7.512 22.7883 7.592 22.7883 7.744C22.7883 7.892 22.676 7.984 22.4737 7.984H22.0108V7.512H22.4737ZM24.8753 7.112C24.2011 7.112 23.7472 7.548 23.7472 8.18C23.7472 8.812 24.2011 9.248 24.8753 9.248C25.5494 9.248 26.0034 8.812 26.0034 8.18C26.0034 7.548 25.5494 7.112 24.8753 7.112ZM24.8753 8.844C24.4977 8.844 24.2685 8.572 24.2685 8.18C24.2685 7.788 24.4977 7.516 24.8753 7.516C25.2528 7.516 25.482 7.788 25.482 8.18C25.482 8.572 25.2528 8.844 24.8753 8.844ZM27.6979 7.112C27.3338 7.112 27.1001 7.26 26.9878 7.424V7.16H26.4934V9.964H27.0057V8.972C27.1136 9.12 27.3473 9.248 27.6844 9.248C28.2282 9.248 28.7136 8.88 28.7136 8.18C28.7136 7.48 28.2327 7.112 27.6979 7.112ZM27.599 8.844C27.2349 8.844 26.9923 8.588 26.9923 8.188V8.172C26.9923 7.772 27.2349 7.516 27.599 7.516C27.9585 7.516 28.1967 7.784 28.1967 8.18C28.1967 8.58 27.9585 8.844 27.599 8.844Z" fill="#6E6A81"/>
<path fill-rule="evenodd" clip-rule="evenodd" d="M3.82025 16.8H9.21351V17.6H3.82025V16.8ZM3.82025 26.4H9.21351V27.2H3.82025V26.4ZM9.21351 19.2H3.82025V20H9.21351V19.2ZM3.82025 28.8H9.21351V29.6H3.82025V28.8ZM6.96632 36H3.82025V36.8H6.96632V36ZM8.31463 21.6H13.7079V22.4H8.31463V21.6ZM13.7079 31.2H8.31463V32H13.7079V31.2ZM3.82025 24H9.21351V24.8H3.82025V24ZM9.21351 33.6H3.82025V34.4H9.21351V33.6ZM18.2023 16.8H21.7978V17.6H18.2023V16.8ZM18.2023 26.4V27.2H21.7978V26.4H18.2023ZM24.4944 19.2V20H20.8989V19.2H24.4944ZM20.8989 28.8V29.6H24.4944V28.8H20.8989ZM3.82025 21.6H7.41576V22.4H3.82025V21.6ZM7.41576 31.2H3.82025V32H7.41576V31.2ZM10.1124 24H13.7079V24.8H10.1124V24ZM13.7079 33.6H10.1124V34.4H13.7079V33.6ZM22.6967 24H24.9438V24.8H22.6967V24ZM24.9438 33.6H22.6967V34.4H24.9438V33.6ZM22.6967 16.8H28.0899V17.6H22.6967V16.8ZM28.0899 26.4H22.6967V27.2H28.0899V26.4ZM30.7865 19.2H36.1798V20H30.7865V19.2ZM36.1798 28.8H30.7865V29.6H36.1798V28.8ZM30.7865 21.6H36.1798V22.4H30.7865V21.6ZM36.1798 31.2H30.7865V32H36.1798V31.2ZM28.9888 16.8H30.7865V17.6H28.9888V16.8ZM28.9888 26.4V27.2H30.7865V26.4H28.9888ZM18.2023 19.2H20V20H18.2023V19.2ZM20 28.8H18.2023V29.6H20V28.8ZM14.6068 21.6H16.4045V22.4H14.6068V21.6ZM16.4045 31.2H14.6068V32H16.4045V31.2ZM31.6854 16.8H36.1798V17.6H31.6854V16.8ZM36.1798 26.4H31.6854V27.2H36.1798V26.4ZM25.3933 19.2H29.8877V20H25.3933V19.2ZM29.8877 28.8H25.3933V29.6H29.8877V28.8ZM25.3933 21.6H29.8877V22.4H25.3933V21.6ZM29.8877 31.2H25.3933V32H29.8877V31.2ZM10.1124 16.8H17.3034V17.6H10.1124V16.8ZM17.3034 26.4H10.1124V27.2H17.3034V26.4ZM10.1124 19.2H17.3034V20H10.1124V19.2ZM17.3034 28.8H10.1124V29.6H17.3034V28.8ZM7.8652 36H12.809V36.8H7.8652V36ZM19.5506 36H13.7079V36.8H19.5506V36ZM17.3034 21.6H24.4944V22.4H17.3034V21.6ZM24.4944 31.2H17.3034V32H24.4944V31.2ZM14.6068 24H21.7978V24.8H14.6068V24ZM21.7978 33.6H14.6068V34.4H21.7978V33.6ZM25.8427 24H36.1798V24.8H25.8427V24ZM36.1798 33.6H25.8427V34.4H36.1798V33.6Z" fill="#B9B6C9"/>
<path d="M15.955 12.8H10.5618V13.6H15.955V12.8Z" fill="#B9B6C9"/>
<path d="M28.9888 12.8H16.8539V13.6H28.9888V12.8Z" fill="#B9B6C9"/>
<path fill-rule="evenodd" clip-rule="evenodd" d="M35.7303 41.6C35.7303 43.1464 34.3218 44.4 32.5843 44.4C30.8467 44.4 29.4382 43.1464 29.4382 41.6C29.4382 40.0536 30.8467 38.8 32.5843 38.8C34.3218 38.8 35.7303 40.0536 35.7303 41.6ZM36.1798 41.6C36.1798 43.3672 34.57 44.8 32.5843 44.8C30.5985 44.8 28.9888 43.3672 28.9888 41.6C28.9888 39.8327 30.5985 38.4 32.5843 38.4C34.57 38.4 36.1798 39.8327 36.1798 41.6ZM34.382 41.6C34.382 42.4836 33.5771 43.2 32.5843 43.2C31.5914 43.2 30.7865 42.4836 30.7865 41.6C30.7865 40.7164 31.5914 40 32.5843 40C33.5771 40 34.382 40.7164 34.382 41.6ZM34.8315 41.6C34.8315 42.7044 33.8254 43.6 32.5843 43.6C31.3432 43.6 30.3371 42.7044 30.3371 41.6C30.3371 40.4956 31.3432 39.6 32.5843 39.6C33.8254 39.6 34.8315 40.4956 34.8315 41.6Z" fill="#A391F3"/>
</g>
<defs>
<clipPath id="clip0_716_1534">
<rect width="40" height="48" fill="white"/>
</clipPath>
</defs>
</svg>
