<svg width="33" height="32" viewBox="0 0 33 32" fill="none" xmlns="http://www.w3.org/2000/svg">
<g clip-path="url(#clip0_785_1448)">
<mask id="mask0_785_1448" style="mask-type:luminance" maskUnits="userSpaceOnUse" x="0" y="0" width="33" height="32">
<path d="M32.9375 0H0.9375V32H32.9375V0Z" fill="white"/>
</mask>
<g mask="url(#mask0_785_1448)">
<path d="M32.2541 16.3581C32.2541 15.0381 32.1542 14.0781 31.9146 13.0781H16.9141V19.0181H25.7226C25.5429 20.4981 24.5841 22.7181 22.4469 24.2181L22.4269 24.4181L27.1608 28.0981L27.4803 28.1381C30.5164 25.3381 32.2541 21.2181 32.2541 16.3581Z" fill="#4285F4"/>
<path d="M16.9176 31.9963C21.232 31.9963 24.8473 30.5763 27.5038 28.1163L22.4704 24.1963C21.1121 25.1363 19.3145 25.7962 16.9376 25.7962C12.7031 25.7962 9.12781 22.9962 7.84948 19.1562L7.66971 19.1763L2.71617 22.9963L2.65625 23.1763C5.27284 28.3963 10.6658 31.9963 16.9176 31.9963Z" fill="#34A853"/>
<path d="M7.82851 19.1622C7.48895 18.1622 7.28921 17.1022 7.28921 16.0022C7.28921 14.9022 7.48895 13.8422 7.80854 12.8422V12.6222L2.81505 8.74219L2.65526 8.82219C1.55669 10.9822 0.9375 13.4222 0.9375 16.0022C0.9375 18.5822 1.55669 21.0222 2.63528 23.1822L7.82851 19.1622Z" fill="#FBBC05"/>
<path d="M16.9142 6.18C19.9103 6.18 21.9477 7.48 23.0862 8.56L27.6003 4.16C24.8239 1.58 21.2286 0 16.9142 0C10.6624 0 5.26937 3.6 2.63281 8.82L7.80607 12.84C9.10437 8.98 12.6797 6.18 16.9142 6.18Z" fill="#EB4335"/>
</g>
</g>
<defs>
<clipPath id="clip0_785_1448">
<rect width="33" height="32" fill="white"/>
</clipPath>
</defs>
</svg>
