<svg width="80" height="80" viewBox="0 0 80 80" fill="none" xmlns="http://www.w3.org/2000/svg">
<rect width="80" height="80" rx="16" fill="white"/>
<rect x="1" y="1" width="78" height="78" rx="16" fill="white"/>
<g clip-path="url(#clip0_697_414)">
<path d="M1 56.333H81" stroke="#B7B7B7" stroke-width="0.506667"/>
<path d="M1 41H81" stroke="#B7B7B7" stroke-width="0.506667"/>
<path d="M1 25.667H81" stroke="#B7B7B7" stroke-width="0.506667"/>
<path d="M56.3334 81V1" stroke="#B7B7B7" stroke-width="0.506667"/>
<path d="M41 81V1" stroke="#B7B7B7" stroke-width="0.506667"/>
<path d="M25.6666 81V1" stroke="#B7B7B7" stroke-width="0.506667"/>
<path d="M81 81L1 1" stroke="#B7B7B7" stroke-width="0.506667"/>
<path d="M1 81L81 1" stroke="#B7B7B7" stroke-width="0.506667"/>
<rect x="6.20007" y="6.2002" width="67.6" height="67.6" stroke="#B7B7B7" stroke-width="0.506667"/>
<circle cx="41" cy="41.0003" r="15.3333" stroke="#B7B7B7" stroke-width="0.506667"/>
<circle cx="41" cy="41" r="22" stroke="#B7B7B7" stroke-width="0.506667"/>
<circle cx="41" cy="40.9997" r="34.6667" stroke="#B7B7B7" stroke-width="0.506667"/>
</g>
<rect x="1.25333" y="1.25333" width="77.4933" height="77.4933" rx="17.08" stroke="#B7B7B7" stroke-width="0.506667"/>
<path d="M42.8752 27.8039C43.9431 26.6436 45.3979 25.9955 46.9241 26L63.062 26.049C66.3349 26.0587 68.19 30.2002 66.1433 32.9277L63.5158 36.4291C62.4395 37.8634 60.8222 38.6927 59.101 38.6927H32.8546L42.8752 27.8039Z" fill="black"/>
<path d="M23.9799 43.5387C25.0433 42.3734 26.4956 41.7186 28.022 41.7163L44.1585 41.6914C47.4318 41.6864 49.3035 45.8192 47.2672 48.5557L44.6524 52.0697C43.5815 53.5088 41.9673 54.3453 40.2462 54.3532L14 54.4733L23.9799 43.5387Z" fill="black"/>
<defs>
<clipPath id="clip0_697_414">
<rect x="1" y="1" width="78" height="78" rx="17.3333" fill="white"/>
</clipPath>
</defs>
</svg>
