<svg width="13" height="12" viewBox="0 0 13 12" fill="none" xmlns="http://www.w3.org/2000/svg">
<path d="M10.5328 2.40469V7.20469C10.5328 7.38869 10.4728 7.53469 10.3528 7.64269C10.2328 7.75069 10.0928 7.80469 9.93281 7.80469C9.76481 7.80469 9.62281 7.74669 9.50681 7.63069C9.39081 7.51469 9.33281 7.37269 9.33281 7.20469V3.85669L3.15281 10.0247C3.01681 10.1447 2.87681 10.2047 2.73281 10.2047C2.57281 10.2047 2.43281 10.1447 2.31281 10.0247C2.19281 9.90469 2.13281 9.76469 2.13281 9.60469C2.13281 9.42869 2.19281 9.28869 2.31281 9.18469L8.48081 3.00469H5.13281C4.94881 3.00469 4.80281 2.94469 4.69481 2.82469C4.58681 2.70469 4.53281 2.56469 4.53281 2.40469C4.53281 2.23669 4.59081 2.09469 4.70681 1.97869C4.82281 1.86269 4.96481 1.80469 5.13281 1.80469H9.93281C10.1008 1.80469 10.2428 1.86069 10.3588 1.97269C10.4748 2.08469 10.5328 2.22869 10.5328 2.40469Z" fill="black" fill-opacity="0.7"/>
</svg>
