<svg width="24" height="24" viewBox="0 0 24 24" fill="none" xmlns="http://www.w3.org/2000/svg">
<path d="M9.87671 9.88281C9.58196 10.1575 9.34555 10.4887 9.18158 10.8567C9.01762 11.2247 8.92945 11.6219 8.92234 12.0247C8.91523 12.4275 8.98933 12.8276 9.14022 13.2012C9.2911 13.5748 9.51568 13.9141 9.80055 14.199C10.0854 14.4838 10.4248 14.7084 10.7983 14.8593C11.1719 15.0102 11.572 15.0843 11.9748 15.0772C12.3776 15.0701 12.7749 14.9819 13.1429 14.8179C13.5109 14.654 13.8421 14.4176 14.1167 14.1228" stroke="black" stroke-width="2" stroke-linecap="round" stroke-linejoin="round"/>
<path d="M10.7266 5.08C11.1479 5.02751 11.572 5.00079 11.9966 5C18.9966 5 21.9966 12 21.9966 12C21.5495 12.9571 20.9888 13.8569 20.3266 14.68" stroke="black" stroke-width="2" stroke-linecap="round" stroke-linejoin="round"/>
<path d="M6.61 6.60938C4.62125 7.964 3.02987 9.82463 2 11.9994C2 11.9994 5 18.9994 12 18.9994C13.9159 19.0045 15.7908 18.4445 17.39 17.3894" stroke="black" stroke-width="2" stroke-linecap="round" stroke-linejoin="round"/>
<path d="M2 2L22 22" stroke="black" stroke-width="2" stroke-linecap="round" stroke-linejoin="round"/>
<path d="M2 12C2 12 5 5 12 5C19 5 22 12 22 12C22 12 19 19 12 19C5 19 2 12 2 12Z" stroke="black" stroke-width="2" stroke-linecap="round" stroke-linejoin="round"/>
<path d="M12 15C13.6569 15 15 13.6569 15 12C15 10.3431 13.6569 9 12 9C10.3431 9 9 10.3431 9 12C9 13.6569 10.3431 15 12 15Z" stroke="black" stroke-width="2" stroke-linecap="round" stroke-linejoin="round"/>
</svg>
