<svg width="130" height="146" viewBox="0 0 130 146" fill="none" xmlns="http://www.w3.org/2000/svg">
<g clip-path="url(#clip0_742_23038)">
<mask id="mask0_742_23038" style="mask-type:luminance" maskUnits="userSpaceOnUse" x="0" y="0" width="130" height="146">
<path d="M130 0H0V146H130V0Z" fill="white"/>
</mask>
<g mask="url(#mask0_742_23038)">
<path d="M23.0208 0H106.979C119.708 0 130 11.8547 130 26.5171V119.483C130 134.145 119.708 146 106.979 146H23.0208C10.2917 146 0 134.145 0 119.483V26.5171C0 11.8547 10.2917 0 23.0208 0Z" fill="#001E36"/>
<path d="M29.25 102.388V38.1857C29.25 37.749 29.4125 37.4994 29.7917 37.4994C30.7125 37.4994 31.5792 37.4994 32.825 37.437C34.125 37.3746 35.4792 37.3746 36.9417 37.3122C38.4042 37.2498 39.975 37.2498 41.6542 37.1874C43.3333 37.125 44.9583 37.125 46.5833 37.125C51.025 37.125 54.7083 37.749 57.7417 39.0592C60.45 40.1199 62.9417 41.8669 65 44.1755C66.7333 46.1721 68.0875 48.6054 68.9542 51.2883C69.7667 53.9088 70.2 56.5917 70.2 59.3994C70.2 64.7652 69.1167 69.1951 66.95 72.6892C64.7833 76.1832 61.75 78.8037 58.2292 80.3011C54.5458 81.8609 50.4833 82.4225 46.0417 82.4225C44.7417 82.4225 43.875 82.4225 43.3333 82.3601C42.7917 82.2977 42.0333 82.2977 41.0042 82.2977V102.326C41.0583 102.763 40.7875 103.137 40.4083 103.199C40.3542 103.199 40.3 103.199 40.1917 103.199H29.9C29.4667 103.199 29.25 102.95 29.25 102.388ZM41.0583 49.5413V70.5054C41.8167 70.5678 42.5208 70.6302 43.1708 70.6302H46.0417C48.1542 70.6302 50.2667 70.2558 52.2708 69.5071C54.0042 68.9456 55.5208 67.7601 56.7125 66.2003C57.85 64.6404 58.3917 62.5191 58.3917 59.7738C58.4458 57.8396 58.0125 55.9054 57.1458 54.2208C56.225 52.5986 54.925 51.3507 53.3542 50.6644C51.35 49.7285 49.1833 49.3541 46.9625 49.4165C45.5542 49.4165 44.3083 49.4165 43.2792 49.4789C42.1958 49.4165 41.4375 49.4789 41.0583 49.5413Z" fill="#31A8FF"/>
<path d="M104.003 66.6947C102.378 65.6964 100.645 65.01 98.8032 64.5733C96.7991 64.0741 94.7949 63.7621 92.7366 63.7621C91.6533 63.6997 90.5158 63.8869 89.4866 64.1988C88.7824 64.386 88.1866 64.8229 87.8074 65.4468C87.5366 65.9459 87.3741 66.5699 87.3741 67.1314C87.3741 67.6929 87.5908 68.2545 87.9158 68.7536C88.4033 69.44 89.0533 70.0015 89.7574 70.4382C91.0033 71.187 92.3033 71.8733 93.6033 72.4972C96.5283 73.6203 99.3449 75.1801 101.945 77.0519C103.732 78.3622 105.195 80.1091 106.224 82.2305C107.091 84.227 107.524 86.4108 107.47 88.657C107.524 91.5894 106.766 94.5219 105.357 96.9552C103.841 99.451 101.728 101.385 99.2908 102.508C96.6366 103.818 93.3866 104.505 89.4866 104.505C86.9949 104.505 84.5574 104.255 82.1199 103.694C80.2241 103.319 78.3283 102.633 76.5949 101.697C76.2158 101.448 75.9449 101.011 75.9991 100.512V89.6553C75.9991 89.4682 76.0533 89.2186 76.2158 89.0938C76.3783 88.969 76.5408 89.0313 76.7033 89.1561C78.8158 90.5911 81.0366 91.5895 83.4199 92.2135C85.4783 92.8374 87.6449 93.1493 89.8116 93.1493C91.8699 93.1493 93.3324 92.8374 94.3074 92.2759C95.1741 91.8391 95.7699 90.7784 95.7699 89.6553C95.7699 88.7818 95.3366 87.9706 94.4699 87.1595C93.6032 86.3484 91.8158 85.4125 89.1616 84.227C86.3991 83.104 83.8533 81.6066 81.4699 79.7348C79.7908 78.3622 78.3824 76.5527 77.3533 74.4313C76.4866 72.4347 76.0533 70.251 76.1074 68.0672C76.1074 65.3843 76.7574 62.8263 77.9491 60.5177C79.3033 58.022 81.3074 56.0253 83.6366 54.7775C86.1824 53.28 89.3783 52.5938 93.2241 52.5938C95.4449 52.5938 97.7199 52.781 99.9408 53.1553C101.566 53.4049 103.137 53.9041 104.599 54.5904C104.816 54.6528 105.032 54.9023 105.141 55.1519C105.195 55.4015 105.249 55.6511 105.249 55.9006V66.0707C105.249 66.3203 105.141 66.5699 104.978 66.6947C104.491 66.8194 104.22 66.8194 104.003 66.6947Z" fill="#31A8FF"/>
</g>
</g>
<defs>
<clipPath id="clip0_742_23038">
<rect width="130" height="146" fill="white"/>
</clipPath>
</defs>
</svg>
