<svg width="130" height="146" viewBox="0 0 130 146" fill="none" xmlns="http://www.w3.org/2000/svg">
<path d="M47.0419 134.576C58.3725 134.576 67.5683 125.38 67.5683 114.05V93.5234H47.0419C35.7114 93.5234 26.5156 102.719 26.5156 114.05C26.5156 125.38 35.7114 134.576 47.0419 134.576Z" fill="#0ACF83"/>
<path d="M26.5156 73.0029C26.5156 61.6724 35.7114 52.4766 47.0419 52.4766H67.5683V93.5292H47.0419C35.7114 93.5292 26.5156 84.3334 26.5156 73.0029Z" fill="#A259FF"/>
<path d="M26.5156 31.9482C26.5156 20.6177 35.7114 11.4219 47.0419 11.4219H67.5683V52.4745H47.0419C35.7114 52.4745 26.5156 43.2787 26.5156 31.9482Z" fill="#F24E1E"/>
<path d="M67.5625 11.4219H88.0888C99.4193 11.4219 108.615 20.6177 108.615 31.9482C108.615 43.2787 99.4193 52.4745 88.0888 52.4745H67.5625V11.4219Z" fill="#FF7262"/>
<path d="M108.615 73.0029C108.615 84.3334 99.4193 93.5292 88.0888 93.5292C76.7582 93.5292 67.5625 84.3334 67.5625 73.0029C67.5625 61.6724 76.7582 52.4766 88.0888 52.4766C99.4193 52.4766 108.615 61.6724 108.615 73.0029Z" fill="#1ABCFE"/>
</svg>
