<svg width="32" height="32" viewBox="0 0 32 32" fill="none" xmlns="http://www.w3.org/2000/svg">
<g clip-path="url(#clip0_748_1373)">
<path d="M16 32C24.8367 32 32 24.8367 32 16C32 7.16333 24.8367 0 16 0C7.16333 0 0 7.16333 0 16C0 24.8367 7.16333 32 16 32Z" fill="#D6001C"/>
<path d="M9.09744 8.78125V14.2239C9.9261 13.2359 10.9194 12.7386 12.0714 12.7386C12.6648 12.7386 13.1961 12.8519 13.6728 13.0766C14.1508 13.2999 14.5081 13.5866 14.7494 13.9346C14.9921 14.2859 15.1561 14.6706 15.2448 15.0946C15.3328 15.5166 15.3768 16.1733 15.3768 17.0639V22.8833H12.8021V17.6419C12.8021 16.6019 12.7554 15.9433 12.6574 15.6633C12.5656 15.389 12.3835 15.1539 12.1408 14.9966C11.8928 14.8293 11.5841 14.7466 11.2114 14.7466C10.7848 14.7466 10.4021 14.8532 10.0694 15.0652C9.72944 15.2786 9.48544 15.5973 9.33077 16.0233C9.17344 16.4499 9.09477 17.0799 9.09744 17.9139L9.09477 22.8833H6.52344V8.78125H9.0981M19.2354 8.78125V14.2239C20.0648 13.2359 21.0574 12.7386 22.2088 12.7386C22.8001 12.7386 23.3354 12.8519 23.8128 13.0766C24.2888 13.2999 24.6461 13.5866 24.8861 13.9346C25.1283 14.2836 25.2968 14.6783 25.3814 15.0946C25.4701 15.5166 25.5141 16.1733 25.5141 17.0639V22.8833H22.9421V17.6419C22.9421 16.6019 22.8934 15.9433 22.7954 15.6633C22.7036 15.3886 22.5209 15.1534 22.2774 14.9966C22.0321 14.8293 21.7208 14.7466 21.3481 14.7466C20.9221 14.7466 20.5394 14.8532 20.2061 15.0652C19.8708 15.2786 19.6254 15.5973 19.4688 16.0233C19.3141 16.4499 19.2354 17.0799 19.2354 17.9139V22.8833H16.6641V8.78125H19.2354Z" fill="#FEFEFE"/>
</g>
<defs>
<clipPath id="clip0_748_1373">
<rect width="32" height="32" fill="white"/>
</clipPath>
</defs>
</svg>
