<svg width="980" height="521" viewBox="0 0 980 521" fill="none" xmlns="http://www.w3.org/2000/svg">
<rect width="980" height="521" fill="white"/>
<rect width="240" height="243" rx="48" fill="black"/>
<rect y="278" width="240" height="243" rx="48" fill="#F7F7F7"/>
<rect x="286" width="694" height="239" rx="41" fill="black"/>
<rect x="286" y="282" width="694" height="239" rx="41" fill="#F7F7F7"/>
<path d="M59 121.5C59 92.5086 59 78.0129 68.0065 69.0065C77.0129 60 91.5086 60 120.5 60C149.491 60 163.987 60 172.994 69.0065C182 78.0129 182 92.5086 182 121.5C182 150.491 182 164.987 172.994 173.994C163.987 183 149.491 183 120.5 183C91.5086 183 77.0129 183 68.0065 173.994C59 164.987 59 150.491 59 121.5Z" fill="white"/>
<path d="M125.172 97.938C127.203 95.732 129.969 94.4997 132.87 94.5083L163.552 94.6014C169.775 94.62 173.301 102.494 169.41 107.679L164.415 114.336C162.368 117.063 159.294 118.64 156.021 118.64H106.121L125.172 97.938Z" fill="black"/>
<path d="M89.2489 127.853C91.2707 125.638 94.0318 124.393 96.9338 124.389L127.613 124.341C133.836 124.332 137.395 132.189 133.523 137.392L128.552 144.073C126.516 146.809 123.447 148.399 120.175 148.414L70.2749 148.642L89.2489 127.853Z" fill="black"/>
<path d="M341 118.5C341 89.5086 341 75.0129 350.006 66.0065C359.013 57 373.509 57 402.5 57C431.491 57 445.987 57 454.994 66.0065C464 75.0129 464 89.5086 464 118.5C464 147.491 464 161.987 454.994 170.994C445.987 180 431.491 180 402.5 180C373.509 180 359.013 180 350.006 170.994C341 161.987 341 147.491 341 118.5Z" fill="white"/>
<path d="M407.172 94.938C409.203 92.732 411.969 91.4997 414.87 91.5083L445.552 91.6014C451.775 91.62 455.301 99.4938 451.41 104.679L446.415 111.336C444.368 114.063 441.294 115.64 438.021 115.64H388.121L407.172 94.938Z" fill="black"/>
<path d="M371.249 124.853C373.271 122.638 376.032 121.393 378.934 121.389L409.613 121.341C415.836 121.332 419.395 129.189 415.523 134.392L410.552 141.073C408.516 143.809 405.447 145.399 402.175 145.414L352.275 145.642L371.249 124.853Z" fill="black"/>
<path d="M59 399.5C59 370.509 59 356.013 68.0065 347.006C77.0129 338 91.5086 338 120.5 338C149.491 338 163.987 338 172.994 347.006C182 356.013 182 370.509 182 399.5C182 428.491 182 442.987 172.994 451.994C163.987 461 149.491 461 120.5 461C91.5086 461 77.0129 461 68.0065 451.994C59 442.987 59 428.491 59 399.5Z" fill="black"/>
<path d="M125.172 375.938C127.203 373.732 129.969 372.5 132.87 372.508L163.552 372.601C169.775 372.62 173.301 380.494 169.41 385.679L164.415 392.336C162.368 395.063 159.294 396.64 156.021 396.64H106.121L125.172 375.938Z" fill="white"/>
<path d="M89.2489 405.853C91.2707 403.638 94.0318 402.393 96.9338 402.389L127.613 402.341C133.836 402.332 137.395 410.189 133.523 415.392L128.552 422.073C126.516 424.809 123.447 426.399 120.175 426.414L70.2749 426.642L89.2489 405.853Z" fill="white"/>
<path d="M341 401.5C341 372.509 341 358.013 350.006 349.006C359.013 340 373.509 340 402.5 340C431.491 340 445.987 340 454.994 349.006C464 358.013 464 372.509 464 401.5C464 430.491 464 444.987 454.994 453.994C445.987 463 431.491 463 402.5 463C373.509 463 359.013 463 350.006 453.994C341 444.987 341 430.491 341 401.5Z" fill="black"/>
<path d="M407.172 377.938C409.203 375.732 411.969 374.5 414.87 374.508L445.552 374.601C451.775 374.62 455.301 382.494 451.41 387.679L446.415 394.336C444.368 397.063 441.294 398.64 438.021 398.64H388.121L407.172 377.938Z" fill="white"/>
<path d="M371.249 407.853C373.271 405.638 376.032 404.393 378.934 404.389L409.613 404.341C415.836 404.332 419.395 412.189 415.523 417.392L410.552 424.073C408.516 426.809 405.447 428.399 402.175 428.414L352.275 428.642L371.249 407.853Z" fill="white"/>
<path d="M515.268 169H493.188L526.831 71.5455H553.384L586.979 169H564.899L540.488 93.8153H539.727L515.268 169ZM513.888 130.694H566.041V146.778H513.888V130.694ZM622.529 170.19C616.977 170.19 611.949 168.762 607.444 165.907C602.971 163.02 599.418 158.785 596.785 153.202C594.184 147.587 592.883 140.703 592.883 132.55C592.883 124.175 594.231 117.211 596.928 111.66C599.624 106.076 603.209 101.905 607.682 99.1449C612.187 96.3532 617.12 94.9574 622.481 94.9574C626.573 94.9574 629.984 95.6553 632.712 97.0511C635.472 98.4152 637.692 100.128 639.374 102.19C641.087 104.221 642.388 106.219 643.276 108.186H643.894V71.5455H664.118V169H644.132V157.294H643.276C642.324 159.324 640.976 161.339 639.231 163.337C637.518 165.304 635.282 166.938 632.522 168.239C629.793 169.539 626.462 170.19 622.529 170.19ZM628.953 154.058C632.22 154.058 634.98 153.17 637.232 151.393C639.517 149.585 641.261 147.063 642.467 143.827C643.704 140.592 644.323 136.801 644.323 132.455C644.323 128.108 643.72 124.333 642.514 121.129C641.309 117.925 639.564 115.451 637.28 113.706C634.996 111.961 632.22 111.089 628.953 111.089C625.622 111.089 622.814 111.993 620.53 113.801C618.246 115.609 616.517 118.116 615.343 121.32C614.17 124.524 613.583 128.235 613.583 132.455C613.583 136.705 614.17 140.465 615.343 143.732C616.549 146.968 618.278 149.506 620.53 151.346C622.814 153.154 625.622 154.058 628.953 154.058ZM695.873 169L675.983 95.9091H696.492L707.817 145.017H708.483L720.284 95.9091H740.413L752.404 144.732H753.023L764.158 95.9091H784.62L764.777 169H743.316L730.753 123.033H729.849L717.287 169H695.873ZM827.296 170.428C819.904 170.428 813.512 168.857 808.119 165.717C802.757 162.544 798.617 158.135 795.699 152.488C792.78 146.809 791.321 140.227 791.321 132.74C791.321 125.19 792.78 118.591 795.699 112.945C798.617 107.266 802.757 102.857 808.119 99.7159C813.512 96.5436 819.904 94.9574 827.296 94.9574C834.687 94.9574 841.064 96.5436 846.425 99.7159C851.818 102.857 855.974 107.266 858.892 112.945C861.811 118.591 863.27 125.19 863.27 132.74C863.27 140.227 861.811 146.809 858.892 152.488C855.974 158.135 851.818 162.544 846.425 165.717C841.064 168.857 834.687 170.428 827.296 170.428ZM827.391 154.724C830.753 154.724 833.561 153.773 835.813 151.869C838.066 149.934 839.763 147.301 840.905 143.97C842.079 140.639 842.666 136.848 842.666 132.597C842.666 128.346 842.079 124.555 840.905 121.224C839.763 117.893 838.066 115.26 835.813 113.325C833.561 111.39 830.753 110.423 827.391 110.423C823.996 110.423 821.141 111.39 818.825 113.325C816.541 115.26 814.812 117.893 813.639 121.224C812.497 124.555 811.925 128.346 811.925 132.597C811.925 136.848 812.497 140.639 813.639 143.97C814.812 147.301 816.541 149.934 818.825 151.869C821.141 153.773 823.996 154.724 827.391 154.724ZM937.935 116.751L919.377 117.893C919.059 116.307 918.377 114.88 917.331 113.611C916.284 112.31 914.904 111.279 913.191 110.518C911.509 109.725 909.495 109.328 907.147 109.328C904.007 109.328 901.358 109.994 899.201 111.327C897.043 112.627 895.965 114.372 895.965 116.561C895.965 118.306 896.663 119.781 898.059 120.987C899.454 122.192 901.85 123.16 905.244 123.889L918.473 126.554C925.579 128.013 930.876 130.361 934.366 133.597C937.856 136.832 939.6 141.083 939.6 146.349C939.6 151.14 938.189 155.343 935.365 158.96C932.574 162.576 928.735 165.399 923.85 167.43C918.996 169.428 913.397 170.428 907.052 170.428C897.376 170.428 889.668 168.413 883.926 164.384C878.216 160.324 874.869 154.804 873.885 147.825L893.823 146.778C894.426 149.728 895.885 151.98 898.201 153.535C900.517 155.058 903.483 155.819 907.1 155.819C910.653 155.819 913.508 155.137 915.665 153.773C917.854 152.377 918.964 150.585 918.996 148.396C918.964 146.556 918.187 145.049 916.664 143.875C915.142 142.67 912.794 141.75 909.622 141.115L896.964 138.593C889.826 137.165 884.513 134.691 881.023 131.17C877.565 127.648 875.836 123.16 875.836 117.703C875.836 113.008 877.105 108.963 879.643 105.569C882.213 102.174 885.813 99.5573 890.445 97.7173C895.108 95.8774 900.565 94.9574 906.814 94.9574C916.046 94.9574 923.31 96.9084 928.608 100.81C933.938 104.712 937.047 110.026 937.935 116.751Z" fill="white"/>
<path d="M515.268 450H493.188L526.831 352.545H553.384L586.979 450H564.899L540.488 374.815H539.727L515.268 450ZM513.888 411.694H566.041V427.778H513.888V411.694ZM622.529 451.19C616.977 451.19 611.949 449.762 607.444 446.907C602.971 444.02 599.418 439.785 596.785 434.202C594.184 428.587 592.883 421.703 592.883 413.55C592.883 405.175 594.231 398.211 596.928 392.66C599.624 387.076 603.209 382.905 607.682 380.145C612.187 377.353 617.12 375.957 622.481 375.957C626.573 375.957 629.984 376.655 632.712 378.051C635.472 379.415 637.692 381.128 639.374 383.19C641.087 385.221 642.388 387.219 643.276 389.186H643.894V352.545H664.118V450H644.132V438.294H643.276C642.324 440.324 640.976 442.339 639.231 444.337C637.518 446.304 635.282 447.938 632.522 449.239C629.793 450.539 626.462 451.19 622.529 451.19ZM628.953 435.058C632.22 435.058 634.98 434.17 637.232 432.393C639.517 430.585 641.261 428.063 642.467 424.827C643.704 421.592 644.323 417.801 644.323 413.455C644.323 409.108 643.72 405.333 642.514 402.129C641.309 398.925 639.564 396.451 637.28 394.706C634.996 392.961 632.22 392.089 628.953 392.089C625.622 392.089 622.814 392.993 620.53 394.801C618.246 396.609 616.517 399.116 615.343 402.32C614.17 405.524 613.583 409.235 613.583 413.455C613.583 417.705 614.17 421.465 615.343 424.732C616.549 427.968 618.278 430.506 620.53 432.346C622.814 434.154 625.622 435.058 628.953 435.058ZM695.873 450L675.983 376.909H696.492L707.817 426.017H708.483L720.284 376.909H740.413L752.404 425.732H753.023L764.158 376.909H784.62L764.777 450H743.316L730.753 404.033H729.849L717.287 450H695.873ZM827.296 451.428C819.904 451.428 813.512 449.857 808.119 446.717C802.757 443.544 798.617 439.135 795.699 433.488C792.78 427.809 791.321 421.227 791.321 413.74C791.321 406.19 792.78 399.591 795.699 393.945C798.617 388.266 802.757 383.857 808.119 380.716C813.512 377.544 819.904 375.957 827.296 375.957C834.687 375.957 841.064 377.544 846.425 380.716C851.818 383.857 855.974 388.266 858.892 393.945C861.811 399.591 863.27 406.19 863.27 413.74C863.27 421.227 861.811 427.809 858.892 433.488C855.974 439.135 851.818 443.544 846.425 446.717C841.064 449.857 834.687 451.428 827.296 451.428ZM827.391 435.724C830.753 435.724 833.561 434.773 835.813 432.869C838.066 430.934 839.763 428.301 840.905 424.97C842.079 421.639 842.666 417.848 842.666 413.597C842.666 409.346 842.079 405.555 840.905 402.224C839.763 398.893 838.066 396.26 835.813 394.325C833.561 392.39 830.753 391.423 827.391 391.423C823.996 391.423 821.141 392.39 818.825 394.325C816.541 396.26 814.812 398.893 813.639 402.224C812.497 405.555 811.925 409.346 811.925 413.597C811.925 417.848 812.497 421.639 813.639 424.97C814.812 428.301 816.541 430.934 818.825 432.869C821.141 434.773 823.996 435.724 827.391 435.724ZM937.935 397.751L919.377 398.893C919.059 397.307 918.377 395.88 917.331 394.611C916.284 393.31 914.904 392.279 913.191 391.518C911.509 390.725 909.495 390.328 907.147 390.328C904.007 390.328 901.358 390.994 899.201 392.327C897.043 393.627 895.965 395.372 895.965 397.561C895.965 399.306 896.663 400.781 898.059 401.987C899.454 403.192 901.85 404.16 905.244 404.889L918.473 407.554C925.579 409.013 930.876 411.361 934.366 414.597C937.856 417.832 939.6 422.083 939.6 427.349C939.6 432.14 938.189 436.343 935.365 439.96C932.574 443.576 928.735 446.399 923.85 448.43C918.996 450.428 913.397 451.428 907.052 451.428C897.376 451.428 889.668 449.413 883.926 445.384C878.216 441.324 874.869 435.804 873.885 428.825L893.823 427.778C894.426 430.728 895.885 432.98 898.201 434.535C900.517 436.058 903.483 436.819 907.1 436.819C910.653 436.819 913.508 436.137 915.665 434.773C917.854 433.377 918.964 431.585 918.996 429.396C918.964 427.556 918.187 426.049 916.664 424.875C915.142 423.67 912.794 422.75 909.622 422.115L896.964 419.593C889.826 418.165 884.513 415.691 881.023 412.17C877.565 408.648 875.836 404.16 875.836 398.703C875.836 394.008 877.105 389.963 879.643 386.569C882.213 383.174 885.813 380.557 890.445 378.717C895.108 376.877 900.565 375.957 906.814 375.957C916.046 375.957 923.31 377.908 928.608 381.81C933.938 385.712 937.047 391.026 937.935 397.751Z" fill="black"/>
</svg>
