<svg width="16" height="16" viewBox="0 0 16 16" fill="none" xmlns="http://www.w3.org/2000/svg">
<path d="M0 8C0 4.22876 0 2.34315 1.17158 1.17158C2.34315 0 4.22876 0 8 0C11.7713 0 13.6569 0 14.8285 1.17158C16 2.34315 16 4.22876 16 8C16 11.7713 16 13.6569 14.8285 14.8285C13.6569 16 11.7713 16 8 16C4.22876 16 2.34315 16 1.17158 14.8285C0 13.6569 0 11.7713 0 8Z" fill="black"/>
<path d="M8.60908 4.93442C8.87319 4.64746 9.23299 4.48716 9.61043 4.48829L13.6015 4.50039C14.411 4.50281 14.8698 5.52705 14.3636 6.2016L13.7138 7.06755C13.4476 7.42226 13.0476 7.62735 12.6219 7.62735H6.13086L8.60908 4.93442Z" fill="white"/>
<path d="M3.93496 8.82697C4.19795 8.53878 4.55713 8.37684 4.93462 8.37627L8.92539 8.37012C9.73493 8.36889 10.1978 9.39098 9.69421 10.0677L9.04753 10.9368C8.7827 11.2927 8.38349 11.4996 7.95784 11.5015L1.4668 11.5312L3.93496 8.82697Z" fill="white"/>
</svg>
