<svg width="36" height="36" viewBox="0 0 36 36" fill="none" xmlns="http://www.w3.org/2000/svg">
<path d="M0 18C0 9.51472 0 5.27208 2.63604 2.63604C5.27208 0 9.51472 0 18 0C26.4853 0 30.7279 0 33.364 2.63604C36 5.27208 36 9.51472 36 18C36 26.4853 36 30.7279 33.364 33.364C30.7279 36 26.4853 36 18 36C9.51472 36 5.27208 36 2.63604 33.364C0 30.7279 0 26.4853 0 18Z" fill="black"/>
<path d="M19.3729 11.0976C19.9671 10.4519 20.7767 10.0912 21.6259 10.0938L30.6059 10.121C32.4271 10.1264 33.4594 12.431 32.3205 13.9487L30.8584 15.8971C30.2595 16.6952 29.3595 17.1567 28.4018 17.1567H13.7969L19.3729 11.0976Z" fill="white"/>
<path d="M8.85805 19.856C9.44979 19.2076 10.2579 18.8432 11.1073 18.842L20.0865 18.8281C21.908 18.8254 22.9495 21.1251 21.8164 22.6478L20.3613 24.6032C19.7655 25.404 18.8673 25.8694 17.9095 25.8738L3.30469 25.9406L8.85805 19.856Z" fill="white"/>
</svg>
